<mxfile host="app.diagrams.net" agent="Mozilla/5.0 (Windows NT 10.0; Win64; x64) AppleWebKit/537.36 (KHTML, like Gecko) Chrome/127.0.0.0 Safari/537.36" version="24.7.6">
  <diagram name="Page-1" id="5O9fmAcMDBZYaaAQAYpq">
    <mxGraphModel dx="1764" dy="1009" grid="1" gridSize="10" guides="1" tooltips="1" connect="1" arrows="1" fold="1" page="1" pageScale="1" pageWidth="850" pageHeight="1100" math="0" shadow="0">
      <root>
        <mxCell id="0" />
        <mxCell id="1" parent="0" />
        <mxCell id="WxXX0_bXEpohfq6WrG0j-8" value="" style="edgeStyle=orthogonalEdgeStyle;rounded=0;orthogonalLoop=1;jettySize=auto;html=1;" edge="1" parent="1" source="WxXX0_bXEpohfq6WrG0j-1" target="WxXX0_bXEpohfq6WrG0j-7">
          <mxGeometry relative="1" as="geometry" />
        </mxCell>
        <mxCell id="WxXX0_bXEpohfq6WrG0j-1" value="User login" style="rounded=0;whiteSpace=wrap;html=1;" vertex="1" parent="1">
          <mxGeometry x="60" y="180" width="120" height="30" as="geometry" />
        </mxCell>
        <mxCell id="WxXX0_bXEpohfq6WrG0j-6" value="" style="edgeStyle=orthogonalEdgeStyle;rounded=0;orthogonalLoop=1;jettySize=auto;html=1;" edge="1" parent="1" source="WxXX0_bXEpohfq6WrG0j-3" target="WxXX0_bXEpohfq6WrG0j-4">
          <mxGeometry relative="1" as="geometry" />
        </mxCell>
        <mxCell id="WxXX0_bXEpohfq6WrG0j-3" value="Create User" style="rounded=0;whiteSpace=wrap;html=1;" vertex="1" parent="1">
          <mxGeometry x="280" y="10" width="120" height="40" as="geometry" />
        </mxCell>
        <mxCell id="WxXX0_bXEpohfq6WrG0j-17" style="edgeStyle=orthogonalEdgeStyle;rounded=0;orthogonalLoop=1;jettySize=auto;html=1;entryX=0;entryY=0.75;entryDx=0;entryDy=0;" edge="1" parent="1" source="WxXX0_bXEpohfq6WrG0j-4" target="WxXX0_bXEpohfq6WrG0j-12">
          <mxGeometry relative="1" as="geometry" />
        </mxCell>
        <mxCell id="WxXX0_bXEpohfq6WrG0j-4" value="" style="sketch=0;outlineConnect=0;fontColor=#232F3E;gradientColor=none;fillColor=#232F3D;strokeColor=none;dashed=0;verticalLabelPosition=bottom;verticalAlign=top;align=center;html=1;fontSize=12;fontStyle=0;aspect=fixed;pointerEvents=1;shape=mxgraph.aws4.user;" vertex="1" parent="1">
          <mxGeometry x="301" y="146" width="78" height="78" as="geometry" />
        </mxCell>
        <mxCell id="WxXX0_bXEpohfq6WrG0j-7" value="" style="shape=waypoint;sketch=0;size=6;pointerEvents=1;points=[];fillColor=default;resizable=0;rotatable=0;perimeter=centerPerimeter;snapToPoint=1;rounded=0;" vertex="1" parent="1">
          <mxGeometry x="310" y="185" width="20" height="20" as="geometry" />
        </mxCell>
        <mxCell id="WxXX0_bXEpohfq6WrG0j-27" value="" style="edgeStyle=orthogonalEdgeStyle;rounded=0;orthogonalLoop=1;jettySize=auto;html=1;" edge="1" parent="1" source="WxXX0_bXEpohfq6WrG0j-9">
          <mxGeometry relative="1" as="geometry">
            <mxPoint x="340" y="560" as="targetPoint" />
          </mxGeometry>
        </mxCell>
        <mxCell id="WxXX0_bXEpohfq6WrG0j-9" value="user" style="text;html=1;align=center;verticalAlign=middle;whiteSpace=wrap;rounded=0;" vertex="1" parent="1">
          <mxGeometry x="310" y="224" width="60" height="30" as="geometry" />
        </mxCell>
        <mxCell id="WxXX0_bXEpohfq6WrG0j-10" value="&lt;b&gt;POST : /login&lt;/b&gt;" style="text;html=1;align=center;verticalAlign=middle;whiteSpace=wrap;rounded=0;" vertex="1" parent="1">
          <mxGeometry x="200" y="194" width="80" height="30" as="geometry" />
        </mxCell>
        <mxCell id="WxXX0_bXEpohfq6WrG0j-11" value="&lt;b&gt;POST : /signup&lt;/b&gt;" style="text;html=1;align=center;verticalAlign=middle;whiteSpace=wrap;rounded=0;" vertex="1" parent="1">
          <mxGeometry x="350" y="70" width="100" height="30" as="geometry" />
        </mxCell>
        <mxCell id="WxXX0_bXEpohfq6WrG0j-12" value="Access Profile" style="rounded=0;whiteSpace=wrap;html=1;" vertex="1" parent="1">
          <mxGeometry x="600" y="159" width="120" height="35" as="geometry" />
        </mxCell>
        <mxCell id="WxXX0_bXEpohfq6WrG0j-13" value="Change Password" style="rounded=0;whiteSpace=wrap;html=1;" vertex="1" parent="1">
          <mxGeometry x="600" y="240" width="120" height="40" as="geometry" />
        </mxCell>
        <mxCell id="WxXX0_bXEpohfq6WrG0j-20" value="" style="endArrow=none;html=1;rounded=0;" edge="1" parent="1">
          <mxGeometry width="50" height="50" relative="1" as="geometry">
            <mxPoint x="470" y="260" as="sourcePoint" />
            <mxPoint x="470" y="190" as="targetPoint" />
          </mxGeometry>
        </mxCell>
        <mxCell id="WxXX0_bXEpohfq6WrG0j-21" value="" style="endArrow=none;html=1;rounded=0;" edge="1" parent="1">
          <mxGeometry width="50" height="50" relative="1" as="geometry">
            <mxPoint x="470" y="260" as="sourcePoint" />
            <mxPoint x="590" y="260" as="targetPoint" />
            <Array as="points">
              <mxPoint x="560" y="260" />
            </Array>
          </mxGeometry>
        </mxCell>
        <mxCell id="WxXX0_bXEpohfq6WrG0j-23" value="&lt;b&gt;GET :/profile&lt;/b&gt;" style="text;html=1;align=center;verticalAlign=middle;whiteSpace=wrap;rounded=0;" vertex="1" parent="1">
          <mxGeometry x="470" y="150" width="110" height="30" as="geometry" />
        </mxCell>
        <mxCell id="WxXX0_bXEpohfq6WrG0j-24" value="&lt;b&gt;PUT :/profile/password&amp;nbsp;&lt;/b&gt;" style="text;html=1;align=center;verticalAlign=middle;whiteSpace=wrap;rounded=0;" vertex="1" parent="1">
          <mxGeometry x="460" y="270" width="130" height="30" as="geometry" />
        </mxCell>
        <mxCell id="WxXX0_bXEpohfq6WrG0j-43" value="" style="endArrow=classic;html=1;rounded=0;" edge="1" parent="1">
          <mxGeometry relative="1" as="geometry">
            <mxPoint x="620" y="560" as="sourcePoint" />
            <mxPoint x="620" y="560" as="targetPoint" />
            <Array as="points">
              <mxPoint x="340" y="560" />
            </Array>
          </mxGeometry>
        </mxCell>
        <mxCell id="WxXX0_bXEpohfq6WrG0j-44" value="Label" style="edgeLabel;resizable=0;html=1;;align=center;verticalAlign=middle;" connectable="0" vertex="1" parent="WxXX0_bXEpohfq6WrG0j-43">
          <mxGeometry relative="1" as="geometry" />
        </mxCell>
        <mxCell id="WxXX0_bXEpohfq6WrG0j-45" value="Source" style="edgeLabel;resizable=0;html=1;;align=left;verticalAlign=bottom;" connectable="0" vertex="1" parent="WxXX0_bXEpohfq6WrG0j-43">
          <mxGeometry x="-1" relative="1" as="geometry" />
        </mxCell>
        <mxCell id="WxXX0_bXEpohfq6WrG0j-46" value="Post" style="rounded=0;whiteSpace=wrap;html=1;" vertex="1" parent="1">
          <mxGeometry x="670" y="530" width="120" height="60" as="geometry" />
        </mxCell>
        <mxCell id="WxXX0_bXEpohfq6WrG0j-53" value="" style="line;strokeWidth=1;rotatable=0;dashed=0;labelPosition=right;align=left;verticalAlign=middle;spacingTop=0;spacingLeft=6;points=[];portConstraint=eastwest;" vertex="1" parent="1">
          <mxGeometry x="800" y="555" width="60" height="10" as="geometry" />
        </mxCell>
        <mxCell id="WxXX0_bXEpohfq6WrG0j-54" value="" style="line;strokeWidth=2;direction=south;html=1;" vertex="1" parent="1">
          <mxGeometry x="850" y="390" width="10" height="510" as="geometry" />
        </mxCell>
        <mxCell id="WxXX0_bXEpohfq6WrG0j-58" value="" style="line;strokeWidth=1;rotatable=0;dashed=0;labelPosition=right;align=left;verticalAlign=middle;spacingTop=0;spacingLeft=6;points=[];portConstraint=eastwest;" vertex="1" parent="1">
          <mxGeometry x="860" y="390" width="220" height="10" as="geometry" />
        </mxCell>
        <mxCell id="WxXX0_bXEpohfq6WrG0j-59" value="" style="line;strokeWidth=1;rotatable=0;dashed=0;labelPosition=right;align=left;verticalAlign=middle;spacingTop=0;spacingLeft=6;points=[];portConstraint=eastwest;" vertex="1" parent="1">
          <mxGeometry x="860" y="555" width="220" height="10" as="geometry" />
        </mxCell>
        <mxCell id="WxXX0_bXEpohfq6WrG0j-61" value="" style="line;strokeWidth=1;rotatable=0;dashed=0;labelPosition=right;align=left;verticalAlign=middle;spacingTop=0;spacingLeft=6;points=[];portConstraint=eastwest;" vertex="1" parent="1">
          <mxGeometry x="860" y="730" width="220" height="10" as="geometry" />
        </mxCell>
        <mxCell id="WxXX0_bXEpohfq6WrG0j-62" value="List of the items posted" style="rounded=0;whiteSpace=wrap;html=1;" vertex="1" parent="1">
          <mxGeometry x="1080" y="375" width="120" height="40" as="geometry" />
        </mxCell>
        <mxCell id="WxXX0_bXEpohfq6WrG0j-63" value="list of the items" style="rounded=0;whiteSpace=wrap;html=1;" vertex="1" parent="1">
          <mxGeometry x="1080" y="540" width="120" height="40" as="geometry" />
        </mxCell>
        <mxCell id="WxXX0_bXEpohfq6WrG0j-64" value="list of the items&amp;nbsp;" style="rounded=0;whiteSpace=wrap;html=1;" vertex="1" parent="1">
          <mxGeometry x="1080" y="715" width="120" height="40" as="geometry" />
        </mxCell>
        <mxCell id="WxXX0_bXEpohfq6WrG0j-65" value="&lt;b&gt;GET ::/posts&lt;/b&gt;" style="text;html=1;align=center;verticalAlign=middle;whiteSpace=wrap;rounded=0;" vertex="1" parent="1">
          <mxGeometry x="840" y="360" width="210" height="30" as="geometry" />
        </mxCell>
        <mxCell id="WxXX0_bXEpohfq6WrG0j-66" value="&lt;b&gt;POST :/post/postitem&lt;/b&gt;" style="text;html=1;align=center;verticalAlign=middle;whiteSpace=wrap;rounded=0;" vertex="1" parent="1">
          <mxGeometry x="860" y="525" width="210" height="30" as="geometry" />
        </mxCell>
        <mxCell id="WxXX0_bXEpohfq6WrG0j-67" value="&lt;b&gt;PUT :/post/updateitem&lt;/b&gt;" style="text;html=1;align=center;verticalAlign=middle;whiteSpace=wrap;rounded=0;" vertex="1" parent="1">
          <mxGeometry x="865" y="700" width="210" height="30" as="geometry" />
        </mxCell>
        <mxCell id="WxXX0_bXEpohfq6WrG0j-68" value="" style="line;strokeWidth=1;rotatable=0;dashed=0;labelPosition=right;align=left;verticalAlign=middle;spacingTop=0;spacingLeft=6;points=[];portConstraint=eastwest;" vertex="1" parent="1">
          <mxGeometry x="855" y="890" width="220" height="10" as="geometry" />
        </mxCell>
        <mxCell id="WxXX0_bXEpohfq6WrG0j-69" value="DELETE :/post/deleteid&amp;nbsp;" style="text;html=1;align=center;verticalAlign=middle;whiteSpace=wrap;rounded=0;" vertex="1" parent="1">
          <mxGeometry x="870" y="860" width="210" height="30" as="geometry" />
        </mxCell>
        <mxCell id="WxXX0_bXEpohfq6WrG0j-70" value="list of the items&amp;nbsp;" style="rounded=0;whiteSpace=wrap;html=1;" vertex="1" parent="1">
          <mxGeometry x="1080" y="875" width="120" height="40" as="geometry" />
        </mxCell>
      </root>
    </mxGraphModel>
  </diagram>
</mxfile>
